<svg width="1440" height="123" viewBox="0 0 1440 123" fill="none" xmlns="http://www.w3.org/2000/svg">
<path d="M1164.67 47.2003C1165.03 47.2003 1170.07 47.2003 1173.31 40.7147C1176.55 34.5893 1177.63 23.0593 1177.27 22.3386C1176.55 21.618 1168.63 29.1846 1164.67 36.3909C1161.07 43.9575 1164.31 47.2003 1164.67 47.2003Z" fill="#EEE0D1"/>
<path d="M1129.04 10.0803C1127.96 10.801 1141.64 18.3676 1151 9.72003C1154.95 5.39627 1155.31 2.51375 1154.95 0.351869H1147.04C1146.32 1.0725 1145.24 1.43281 1144.52 2.51375C1140.92 7.55815 1129.4 9.35972 1129.04 10.0803Z" fill="#EEE0D1"/>
<path d="M1135.16 67.0169C1126.52 61.2518 1118.97 45.7583 1117.89 46.1186C1117.17 45.7583 1116.81 65.2153 1129.04 74.5834C1140.56 82.5103 1145.96 77.8263 1145.6 77.8263C1145.6 76.7453 1143.08 72.4216 1135.16 67.0169Z" fill="#EEE0D1"/>
<path d="M1177.27 55.1245C1179.43 60.5292 1183.74 59.8086 1184.1 59.4483C1184.1 59.4483 1187.7 56.2055 1185.9 51.5214C1184.1 47.1976 1177.99 41.4326 1176.91 41.4326C1176.19 41.7929 1175.11 49.7198 1177.27 55.1245Z" fill="#EEE0D1"/>
<path d="M1173.31 84.317C1184.11 86.8392 1187.71 83.2361 1188.07 83.2361C1188.43 82.8757 1186.63 77.8314 1175.83 74.9488C1164.67 74.2282 1153.52 67.3822 1152.44 66.6616C1150.28 66.6616 1160.71 83.2361 1173.31 84.317Z" fill="#EEE0D1"/>
<path d="M1168.99 23.412C1183.03 14.4041 1190.23 7.19784 1193.83 2.15344C1192.75 4.31532 1191.31 7.19784 1188.79 9.72003C1181.23 15.1247 1176.19 32.0595 1183.03 42.1483C1194.19 60.164 1199.94 60.5243 1200.3 60.8846C1200.3 60.8846 1200.3 60.5243 1200.66 60.164C1200.66 60.5243 1200.66 60.8846 1200.66 60.8846C1201.02 60.5243 1207.14 60.164 1217.94 42.1483C1224.78 32.4198 1219.38 15.1247 1211.82 9.72003C1209.3 7.19784 1207.86 4.31532 1206.78 2.15344C1210.38 7.19784 1217.58 14.4041 1231.62 23.412C1234.5 22.331 1234.14 7.91846 1234.86 5.03595C1234.86 3.5947 1235.22 1.79313 1235.22 0.351869H1226.58C1226.58 1.79313 1226.22 3.23438 1225.86 4.67564C1225.14 8.63909 1225.86 5.75658 1225.5 6.47721C1222.98 5.03595 1220.46 3.23438 1216.14 1.0725C1216.5 0.712183 1216.14 0.712183 1215.78 0.351869H1204.26C1204.26 3.5947 1204.62 7.91846 1207.5 12.6025C1213.26 21.2501 1213.98 29.8976 1209.3 37.4642C1202.46 48.6339 1200.66 55.8402 1200.3 58.7227C1199.94 55.8402 1198.15 48.6339 1191.31 37.4642C1186.63 29.5373 1187.35 20.8898 1193.11 12.6025C1195.99 7.91846 1196.71 3.23438 1196.35 0.351869H1184.83C1184.47 0.712183 1184.11 0.712183 1184.11 1.0725C1180.15 3.5947 1177.63 5.03595 1174.75 6.47721C1174.75 6.11689 1174.75 5.75658 1174.39 4.67564C1174.75 3.23438 1174.75 1.79313 1174.39 0.351869H1165.39C1165.39 1.79313 1165.39 3.5947 1165.75 5.03595C1166.47 7.91846 1166.11 22.331 1168.99 23.412Z" fill="#EEE0D1"/>
<path d="M1236.65 47.194C1237.01 47.194 1240.25 43.9512 1236.65 36.7449C1232.69 29.1783 1224.77 21.972 1224.05 22.6926C1223.33 23.4133 1224.77 34.9433 1227.65 41.0687C1231.25 47.194 1236.29 47.194 1236.65 47.194Z" fill="#EEE0D1"/>
<path d="M1250.69 9.72003C1259.68 18.3676 1273.72 10.4407 1272.28 10.0803C1271.92 9.35972 1260.4 7.55815 1256.8 2.51375C1256.08 1.43281 1255.01 1.0725 1254.29 0.351869H1246.37C1246.01 2.51375 1246.73 5.39627 1250.69 9.72003Z" fill="#EEE0D1"/>
<path d="M1266.17 67.024C1258.25 72.4288 1255.73 76.7525 1255.73 77.4732C1255.37 77.1128 1260.41 82.1572 1272.29 74.2303C1284.52 64.8622 1284.16 45.4052 1283.44 45.7655C1282.37 45.7655 1274.81 61.259 1266.17 67.024Z" fill="#EEE0D1"/>
<path d="M1217.21 59.8178C1217.57 60.1781 1221.89 60.5384 1224.05 55.494C1226.21 50.0893 1225.13 42.1624 1224.05 41.8021C1223.33 41.8021 1216.85 47.2068 1215.05 51.8909C1213.61 56.2146 1217.21 59.4574 1217.21 59.8178Z" fill="#EEE0D1"/>
<path d="M1228.02 84.317C1240.98 83.2361 1251.05 66.6616 1249.25 66.6616C1248.17 67.3822 1237.02 74.2282 1225.86 74.9488C1215.06 77.8314 1213.26 82.8757 1213.62 83.2361C1213.62 83.2361 1217.22 86.8392 1228.02 84.317Z" fill="#EEE0D1"/>
<path d="M1075.41 28.4619C1075.05 27.3809 1058.49 33.146 1048.42 30.9841C1038.7 29.1825 1034.02 30.6238 1033.66 31.3444C1033.66 30.9841 1033.66 38.1904 1047.7 40.7126C1062.81 42.5141 1076.13 28.4619 1075.41 28.4619Z" fill="#EEE0D1"/>
<path d="M1009.19 16.2147C1018.91 24.502 1037.98 20.1782 1036.54 18.7369C1035.46 18.3766 1022.51 15.4941 1014.23 7.92752C1004.51 2.1625 999.833 4.6847 999.833 5.04501C999.473 5.40532 999.473 10.4497 1009.19 16.2147Z" fill="#EEE0D1"/>
<path d="M1321.95 10.0803C1327.71 11.8819 1335.27 14.0438 1343.19 9.72003C1346.79 7.55815 1348.95 4.31532 1350.02 0.712183H1340.31C1337.43 4.67564 1330.95 7.19784 1323.39 5.03595C1316.91 3.95501 1312.23 2.15344 1309 0.351869H1306.84C1309 2.87407 1313.67 7.55815 1321.95 10.0803Z" fill="#EEE0D1"/>
<path d="M1058.13 9.35972C1066.05 13.6835 1073.61 11.5216 1079.37 9.72003C1087.29 7.55815 1092.33 2.87407 1094.49 0.351869H1091.97C1089.09 2.15344 1084.41 3.95501 1077.93 4.67564C1070.73 6.83752 1064.25 4.31532 1061.37 0.351869H1051.66C1052.74 3.95501 1054.54 7.19784 1058.13 9.35972Z" fill="#EEE0D1"/>
<path d="M1317.63 17.2866C1329.15 25.9342 1348.22 25.5739 1362.98 19.0882C1364.42 21.9707 1367.66 28.4564 1377.38 30.2579C1389.97 32.0595 1403.29 24.4929 1413.37 22.6913C1424.52 20.5295 1431 21.9707 1434.96 23.0517C1436.76 24.8532 1438.2 25.2135 1438.2 25.2135C1438.56 24.8532 1438.56 24.4929 1438.56 23.7723C1439.28 23.7723 1439.64 24.1326 1440 23.412C1440 23.412 1439.28 21.9707 1437.84 20.1691C1436.76 16.566 1435.68 10.4407 1437.48 0.351869H1428.12C1427.4 5.75658 1427.76 10.4407 1428.84 13.6835C1424.52 12.2422 1418.77 11.5216 1411.93 13.3232C1399.33 16.2057 1387.81 24.4929 1378.46 24.8532C1371.26 25.2135 1366.94 20.8898 1364.78 18.7279C1368.38 16.9263 1372.34 15.1247 1375.22 12.6025C1380.25 6.83752 1385.65 2.87407 1390.33 0.351869H1374.5C1372.34 1.79313 1370.54 3.23438 1368.38 4.67564C1355.42 16.2057 1334.19 20.1691 1320.51 12.9629C1313.67 9.72003 1309.36 4.67564 1306.84 0.351869H1304.31C1306.11 5.39627 1309.35 11.8819 1317.63 17.2866Z" fill="#EEE0D1"/>
<path d="M1083.69 41.4277C1069.66 47.9133 1080.45 30.9786 1078.3 33.1404C1078.3 33.1404 1076.5 32.7801 1072.54 35.6626C1071.1 37.4642 1067.5 40.707 1070.38 46.8324C1073.98 52.9577 1082.61 52.9577 1088.01 49.7149C1090.53 47.553 1092.33 45.3911 1094.13 42.8689C1093.77 45.7514 1093.41 48.6339 1093.41 51.8768C1095.21 58.0021 1100.97 64.1275 1107.81 62.3259C1114.29 59.8037 1113.93 54.7593 1114.29 52.9577C1113.21 48.2736 1112.13 47.1927 1112.13 47.1927C1112.13 43.9499 1108.17 63.4068 1102.41 48.9943C1099.89 34.5817 1117.53 14.4041 1121.84 9.35972C1122.2 9.35972 1122.2 8.99941 1122.56 8.99941C1120.04 14.0438 1117.53 21.2501 1119.32 31.6992C1121.48 45.7514 1135.16 59.4434 1150.28 65.2084C1149.2 68.4512 1147.04 74.9369 1152.44 83.2241C1159.99 93.3129 1174.75 97.6367 1183.39 103.402C1192.75 109.887 1196.35 114.932 1198.15 118.535C1198.15 121.057 1198.86 122.498 1198.86 122.498C1199.22 122.859 1199.58 122.138 1199.94 121.778C1200.3 122.498 1200.66 122.859 1201.02 122.498C1201.02 122.498 1201.38 121.057 1201.74 118.535C1203.9 114.932 1207.5 109.527 1216.5 103.402C1225.14 97.6367 1239.89 93.3129 1247.45 83.2241C1252.85 75.2972 1250.69 68.4512 1249.61 65.2084C1264.73 59.4434 1278.41 46.1118 1280.56 31.6992C1282.36 21.2501 1279.84 14.0438 1277.33 8.99941C1277.69 8.99941 1277.69 8.99941 1277.69 9.35972C1282 14.0438 1299.64 34.5817 1297.48 48.9943C1292.08 63.4068 1288.12 43.9499 1287.76 47.1927C1287.76 47.1927 1286.32 48.2736 1285.6 52.9577C1285.96 55.1196 1285.6 60.164 1292.08 62.3259C1298.92 64.1275 1305.04 58.0021 1306.48 51.8768C1306.84 48.6339 1306.48 45.7514 1305.76 43.2292C1307.56 45.7514 1309.36 47.9133 1311.88 50.0752C1317.64 53.318 1325.91 53.6783 1329.51 47.1927C1332.39 41.0674 1328.43 37.8245 1327.35 35.6626C1323.39 33.1404 1321.59 33.1404 1321.59 33.1404C1319.43 30.9786 1330.23 47.553 1316.2 41.4277C1306.12 33.5008 1303.96 7.55815 1303.6 0.351869H1302.52C1301.08 4.67564 1298.2 15.4851 1300.36 27.0151C1293.52 17.2866 1283.8 11.1613 1279.84 9.35972C1284.16 9.35972 1287.76 6.47721 1290.28 3.23438C1294.6 3.95501 1299.28 3.23438 1302.52 0.351869H1262.21C1265.09 4.31532 1269.77 7.55815 1275.89 8.63909C1275.89 8.99941 1276.25 9.35972 1276.25 10.0803C1275.89 10.4407 1275.17 18.7279 1268.33 27.3754C1262.21 38.1848 1248.89 39.2658 1246.73 29.8976C1246.37 11.1613 1261.49 23.7723 1260.05 20.8898C1260.05 20.8898 1260.05 19.0882 1256.45 14.7644C1253.21 8.99941 1233.42 13.6835 1237.74 32.0595C1239.89 40.3467 1248.89 46.4721 1257.89 44.3102C1266.53 41.788 1270.49 34.942 1273.01 29.8976C1276.97 22.331 1277.33 15.8454 1276.97 12.2422C1278.05 17.2866 1278.76 23.412 1276.25 30.6182C1271.57 45.3911 1253.57 57.6418 1236.66 58.7227C1219.02 60.5243 1205.7 65.5687 1202.1 73.1353C1201.38 74.9369 1201.02 75.6575 1200.66 77.0988C1200.3 76.0178 1200.3 74.9369 1199.22 73.1353C1195.63 65.5687 1181.95 60.5243 1164.67 58.7227C1147.4 57.6418 1129.76 45.3911 1125.08 30.6182C1122.56 23.412 1123.28 17.2866 1124.36 12.2422C1124 15.8454 1124.36 22.331 1128.32 29.8976C1131.2 35.3023 1134.8 41.788 1143.44 44.3102C1152.44 46.4721 1161.43 39.9864 1163.59 32.0595C1167.91 13.6835 1148.12 8.99941 1144.88 14.7644C1141.28 19.0882 1141.28 20.8898 1141.28 20.8898C1139.84 23.412 1154.96 11.1613 1154.6 29.8976C1152.44 39.2658 1139.12 38.1848 1133 27.3754C1126.16 18.7279 1125.44 10.801 1125.08 10.0803C1125.08 9.72003 1125.44 9.35972 1125.44 8.63909C1131.56 7.55815 1136.24 3.95501 1139.12 0.351869H1099.17C1102.41 3.23438 1106.73 3.95501 1111.05 3.23438C1113.57 6.83752 1117.17 9.35972 1121.48 9.72003C1117.17 11.8819 1107.81 17.6469 1100.97 27.7357C1103.13 15.8454 1100.61 5.03595 1099.17 0.712183H1097.73C1097.37 7.91846 1095.21 33.5008 1083.69 41.4277ZM1163.23 68.8115C1189.15 69.8925 1196.71 77.0988 1199.58 81.0622C1199.22 82.5035 1199.58 83.2241 1199.58 83.2241C1199.94 83.5844 1200.3 82.8638 1200.66 82.5035C1201.02 83.2241 1201.38 83.5844 1201.74 83.2241C1201.74 83.2241 1201.74 82.5035 1201.74 81.0622C1204.62 77.4591 1212.18 70.2528 1238.1 68.8115C1242.05 68.4512 1245.65 67.3703 1249.61 65.929C1249.61 69.1719 1249.61 75.2972 1244.21 79.9813C1237.38 86.4669 1222.98 88.9891 1212.18 95.4748C1206.06 99.0779 1202.46 103.402 1200.3 107.725C1198.15 103.402 1194.91 99.0779 1188.43 95.4748C1177.63 88.6288 1163.59 86.4669 1156.4 79.9813C1151.72 75.2972 1151.72 69.1719 1151.72 65.929C1155.68 67.3703 1159.27 68.4512 1163.23 68.8115Z" fill="#EEE0D1"/>
<path d="M963.84 20.1776C962.041 21.9792 961.321 23.4204 961.681 23.4204C962.041 23.7807 962.401 23.7807 963.121 23.7807C963.121 24.5014 962.761 24.8617 963.481 25.222C963.481 25.222 964.92 24.5014 966.72 23.0601C970.679 21.9792 977.157 20.5379 988.314 22.6998C998.392 24.8617 1011.71 32.0679 1024.67 30.2664C1034.38 28.4648 1037.62 22.3395 1039.06 19.0966C1053.82 25.5823 1072.89 25.9426 1084.41 17.2951C1092.33 11.8904 1095.93 5.40471 1097.73 0.360314H1095.21C1092.69 4.68408 1088.37 9.36817 1081.89 12.611C1068.21 19.8173 1046.62 15.8538 1034.02 4.32377C1030.78 2.88251 1028.98 1.80157 1026.82 0.360314H1011.35C1016.03 2.88251 1021.07 6.84597 1027.54 12.2507C1030.42 14.7729 1034.02 16.5744 1037.62 18.376C1035.46 20.5379 1031.14 24.8617 1023.95 24.5014C1014.23 24.141 1002.71 15.8538 990.474 12.9713C983.635 11.1697 977.877 11.8904 973.558 13.3316C974.998 9.72848 974.998 5.0444 974.278 0H964.56C966 10.4491 964.92 16.5744 963.84 20.1776Z" fill="#EEE0D1"/>
<path d="M1352.91 30.9841C1342.83 33.146 1326.27 27.3809 1325.91 28.4619C1325.19 28.4619 1338.51 42.5141 1353.63 40.7126C1367.66 38.1904 1367.66 30.9841 1367.66 31.3444C1367.3 30.6238 1362.62 29.5428 1352.91 30.9841Z" fill="#EEE0D1"/>
<path d="M1392.14 16.2095C1401.85 10.4445 1401.85 5.40009 1401.85 5.03978C1401.85 4.67947 1396.82 2.51758 1387.46 7.92229C1378.82 15.4889 1366.22 18.3676 1364.78 18.7279C1363.34 20.5295 1382.42 24.4967 1392.14 16.2095Z" fill="#EEE0D1"/>
<path d="M202.99 47.2003C203.35 47.2003 208.388 47.2003 211.628 40.7146C214.867 34.5893 215.947 23.0592 215.587 22.3386C214.867 21.618 206.589 29.1846 202.99 36.7512C199.391 43.9575 202.63 47.2003 202.99 47.2003Z" fill="#EEE0D1"/>
<path d="M167.362 10.0803C166.282 10.4407 179.959 18.3676 189.317 9.72003C192.916 5.39627 193.636 2.51375 193.276 0.351869H185.358C184.638 1.0725 183.918 1.43281 182.838 2.51375C179.239 7.55815 167.722 9.35972 167.362 10.0803Z" fill="#EEE0D1"/>
<path d="M173.473 67.0065C165.195 61.2414 157.277 45.7479 156.197 45.7479C155.477 45.3876 155.477 64.8446 167.354 74.2127C178.871 82.1396 183.91 77.4556 183.91 77.4556C183.91 76.7349 181.75 72.4112 173.473 67.0065Z" fill="#EEE0D1"/>
<path d="M215.585 55.1161C217.744 60.5208 222.063 59.8002 222.423 59.4399C222.783 59.0795 226.382 56.197 224.583 51.5129C222.783 47.1892 216.305 41.7845 215.585 41.7845C214.505 41.7845 213.425 49.7114 215.585 55.1161Z" fill="#EEE0D1"/>
<path d="M211.624 84.2994C222.421 86.8216 226.38 83.2185 226.38 83.2185C226.74 82.8582 224.94 77.8138 214.143 74.9312C202.986 74.2106 191.828 67.3647 190.749 66.644C188.589 66.644 199.027 83.2185 211.624 84.2994Z" fill="#EEE0D1"/>
<path d="M207.665 23.412C221.702 14.4041 228.9 7.19784 232.499 2.15344C231.419 4.31532 229.98 7.19784 227.46 9.72003C219.902 15.1247 214.504 32.0595 221.342 42.1483C232.499 60.164 238.258 60.5243 238.618 60.8846C238.978 60.5243 245.096 60.164 255.893 42.1483C262.732 32.4198 257.333 15.1247 249.775 9.72003C247.975 7.19784 246.536 4.31532 245.816 2.15344C249.415 7.19784 256.613 14.4041 270.65 23.412C273.529 22.331 273.169 7.91846 273.889 5.03595C273.889 3.5947 274.249 1.79313 274.249 0.351869H265.251C265.251 1.79313 264.891 3.23438 264.531 4.67564C263.811 8.63909 264.531 5.75658 264.171 6.47721C261.652 5.03595 259.132 3.23438 255.173 1.0725C254.814 0.712183 254.454 0.712183 254.094 0.351869H242.937C242.937 3.5947 243.296 7.91846 246.176 12.6025C251.934 21.2501 252.654 29.8976 247.975 37.8245C241.137 48.9943 239.337 56.2005 238.978 59.0831C238.618 56.2005 237.178 48.9943 229.98 37.8245C225.301 29.8976 226.381 21.2501 231.779 12.6025C234.659 7.91846 235.378 3.5947 235.378 0.351869H223.861C223.501 0.712183 223.141 0.712183 222.782 1.0725C218.823 3.23438 216.303 5.03595 213.784 6.47721C213.784 6.11689 213.784 5.75658 213.424 4.67564C213.064 3.23438 213.064 1.79313 212.704 0.351869H204.066C204.066 1.79313 204.066 3.5947 204.426 5.03595C204.786 7.91846 204.786 22.331 207.665 23.412Z" fill="#EEE0D1"/>
<path d="M274.975 47.2003C275.335 47.2003 278.574 43.9575 274.975 36.7512C271.376 29.1846 263.098 21.618 262.738 22.3386C262.019 23.0592 263.098 34.5893 266.338 40.7146C269.577 47.2003 274.615 47.2003 274.975 47.2003Z" fill="#EEE0D1"/>
<path d="M289.007 9.72003C298.005 18.3676 312.042 10.4407 310.602 10.0803C310.242 9.35972 298.725 7.55815 295.126 2.51375C294.406 1.43281 293.326 1.0725 292.607 0.351869H284.689C284.329 2.51375 285.048 5.39627 289.007 9.72003Z" fill="#EEE0D1"/>
<path d="M304.481 67.0065C296.563 72.4112 294.044 76.7349 294.044 77.4556C294.044 77.4556 299.083 82.1396 310.6 74.2127C322.477 64.8446 322.477 45.3876 321.757 45.7479C320.677 45.7479 313.119 61.2414 304.481 67.0065Z" fill="#EEE0D1"/>
<path d="M255.898 59.8002C256.258 60.1605 260.577 60.5208 262.736 55.4764C264.896 50.0717 263.456 42.1448 262.736 41.7845C262.017 41.7845 255.538 47.1892 253.739 51.8733C251.939 56.197 255.538 59.4399 255.898 59.8002Z" fill="#EEE0D1"/>
<path d="M266.331 84.2994C278.928 83.2185 289.365 66.644 287.206 66.644C286.126 67.3647 275.329 74.2106 263.811 74.9312C253.014 77.8138 251.215 82.8582 251.575 83.2185C251.934 83.2185 255.534 86.8216 266.331 84.2994Z" fill="#EEE0D1"/>
<path d="M113.732 28.4619C113.372 27.3809 96.8158 33.146 86.7383 30.9841C77.0208 29.1825 72.3419 30.6238 71.982 31.3444C71.982 30.9841 71.982 38.1904 86.0185 40.7126C101.135 42.5141 114.451 28.4619 113.732 28.4619Z" fill="#EEE0D1"/>
<path d="M47.5116 16.1972C57.2292 24.4844 76.3044 20.1606 74.8648 18.7193C73.785 18.359 60.8283 15.4765 52.5503 7.90993C42.8328 2.14491 38.1539 4.6671 38.1539 5.02742C37.794 5.38773 37.794 10.4321 47.5116 16.1972Z" fill="#EEE0D1"/>
<path d="M360.273 10.0803C365.672 11.8819 373.23 14.0438 381.508 9.72003C385.107 7.19784 387.266 3.95501 388.346 0.351869H378.629C375.749 4.31532 369.271 6.83752 361.713 4.67564C355.234 3.95501 350.556 2.15344 347.676 0.351869H345.157C347.316 2.87407 352.355 7.55815 360.273 10.0803Z" fill="#EEE0D1"/>
<path d="M96.4556 9.35972C104.374 13.6835 111.932 11.8819 117.69 10.0803C125.608 7.55815 130.647 2.87407 132.806 0.351869H130.287C127.408 2.15344 122.729 3.95501 116.251 4.67564C109.052 6.83752 102.574 4.31532 99.6948 0.351869H89.6173C91.0569 3.95501 93.2164 7.19784 96.4556 9.35972Z" fill="#EEE0D1"/>
<path d="M355.952 17.2866C367.469 25.9342 386.544 25.5739 401.3 19.0882C402.74 21.9707 405.979 28.4564 415.697 30.2579C428.294 32.0595 441.61 24.4929 451.688 22.6913C462.845 20.5295 469.323 21.9707 473.283 23.0517C475.082 24.8532 476.522 25.2135 476.522 25.2135C476.882 24.8532 476.882 24.4929 476.882 23.7723C477.601 23.7723 477.961 24.1326 478.321 23.412C478.321 23.412 477.601 21.9707 476.162 20.1691C474.722 16.566 473.642 10.4407 475.082 0.351869H465.724C465.005 5.75658 465.364 10.4407 466.444 13.6835C462.125 12.2422 456.367 11.5216 449.528 13.3232C436.932 16.2057 425.414 24.4929 415.697 24.8532C408.499 25.2135 404.18 20.8898 402.02 18.7279C405.619 16.9263 409.578 15.1247 412.458 12.6025C418.936 6.83752 424.335 2.87407 428.654 0.351869H412.818C411.018 1.79313 408.859 3.23438 406.699 4.67564C393.742 16.2057 372.508 20.1691 358.831 12.9629C351.993 9.72003 348.036 4.67564 345.157 0.351869H342.635C344.435 5.39627 347.674 11.8819 355.952 17.2866Z" fill="#EEE0D1"/>
<path d="M122.014 41.4277C108.337 47.9133 119.134 30.9786 116.615 33.1404C116.615 33.1404 114.816 32.7801 110.857 35.6626C109.777 37.4642 106.178 40.707 109.057 47.1927C112.656 53.318 121.294 53.318 126.693 50.0752C129.212 47.9133 131.012 45.7514 132.811 43.2292C132.091 45.7514 131.731 48.9943 132.091 51.8768C133.891 58.0021 139.649 64.1275 146.488 62.3259C152.966 59.8037 152.606 54.7593 152.966 52.9577C152.246 48.2736 150.807 47.1927 150.807 47.1927C150.807 43.9499 146.848 63.4068 141.089 48.9943C138.57 34.5817 156.205 14.4041 160.524 9.35972C160.884 9.35972 160.884 8.99941 161.244 8.99941C158.725 14.4041 156.205 21.9707 158.005 32.0595C160.164 46.1118 173.841 59.8037 188.957 65.5687C187.877 68.8115 185.718 75.2972 191.117 83.5844C198.675 93.6732 213.431 97.997 222.069 103.762C231.426 110.248 235.026 115.292 236.825 118.895C237.185 121.417 237.545 122.859 237.905 122.859C238.265 123.219 238.625 122.859 238.985 122.138C239.344 122.859 239.704 123.219 240.424 122.859C240.424 122.859 240.784 121.417 241.144 118.895C242.944 115.292 246.903 109.887 255.9 103.762C264.538 97.997 279.294 93.6732 286.853 83.5844C292.251 75.6575 290.092 68.8115 289.012 65.5687C304.128 59.8037 317.805 46.4721 319.964 32.0595C321.764 21.9707 319.245 14.4041 316.725 9.35972C317.085 9.35972 317.085 9.35972 317.445 9.72003C321.764 14.4041 339.399 34.942 336.88 49.3546C331.481 63.4068 327.522 43.9499 327.163 47.1927C327.163 47.1927 325.723 48.2736 325.003 52.9577C325.363 55.1196 325.003 60.164 331.481 62.3259C338.32 64.1275 344.438 58.0021 345.878 51.8768C346.238 48.6339 345.878 45.7514 345.158 43.2292C346.958 45.7514 348.757 47.9133 350.917 50.0752C356.675 53.318 364.953 53.6783 368.552 47.1927C371.431 41.0674 367.473 37.8245 366.393 35.6626C362.434 33.1404 360.634 33.1404 360.634 33.1404C358.115 30.9786 369.272 47.553 355.236 41.4277C344.438 33.5008 342.279 7.55815 341.919 0.351869H340.839C339.399 4.67564 336.88 15.4851 339.04 27.0151C332.201 17.2866 322.484 11.5216 318.525 9.35972C322.844 9.35972 326.443 6.47721 328.962 3.23438C332.921 3.95501 337.6 3.23438 340.839 0.351869H300.889C303.768 4.31532 308.447 7.55815 314.566 8.63909C314.926 8.99941 314.926 9.35972 314.926 10.0803C314.566 10.4407 313.846 18.7279 307.008 27.3754C300.889 38.1848 287.572 39.2658 285.413 29.8976C284.693 11.1613 299.809 23.7723 298.37 20.8898C298.37 20.8898 298.37 19.0882 294.771 14.7644C291.531 9.35972 271.736 14.0438 275.695 32.4198C277.855 40.707 286.853 46.8324 295.85 44.6705C304.488 42.1483 308.447 35.3023 310.967 30.2579C314.926 22.6913 315.286 16.2057 314.926 12.6025C316.005 17.6469 316.725 23.7723 314.206 30.9786C309.887 45.7514 292.251 58.0021 274.976 59.0831C257.34 60.8846 244.023 65.929 240.424 73.4956C239.704 75.6575 239.344 76.3781 238.985 77.4591C238.625 76.3781 238.625 75.6575 237.545 73.4956C233.946 65.929 220.269 60.8846 202.994 59.0831C186.078 58.0021 168.082 45.7514 163.403 30.9786C160.884 23.7723 161.604 17.6469 162.684 12.6025C162.324 16.2057 162.684 22.6913 166.643 30.2579C169.162 35.6626 173.121 42.1483 181.759 44.6705C190.757 46.8324 199.754 40.3467 201.914 32.4198C206.593 14.0438 186.438 9.35972 183.558 15.1247C179.959 19.4485 179.959 21.2501 179.959 21.2501C178.16 23.7723 193.276 11.1613 192.916 29.8976C190.757 39.2658 177.44 38.1848 171.321 27.3754C164.483 18.7279 163.763 10.4407 163.044 10.0803C163.044 9.72003 163.403 9.35972 163.403 8.63909C169.882 7.55815 174.561 4.31532 177.44 0.351869H137.13C140.369 3.23438 144.688 3.95501 149.007 3.23438C151.526 6.83752 155.125 9.35972 159.444 9.72003C155.125 11.8819 145.768 17.6469 138.93 27.7357C141.089 15.4851 138.57 4.67564 137.13 0.351869H136.05C135.69 7.91846 133.531 33.5008 122.014 41.4277ZM201.554 68.8115C227.827 69.8925 235.026 77.0988 237.905 81.0622C237.545 82.5035 237.905 83.2241 237.905 83.2241C238.265 83.2241 238.625 82.8638 238.985 82.1432C239.344 82.8638 239.704 83.2241 240.424 83.2241C240.424 83.2241 240.424 82.5035 240.424 81.0622C243.303 77.4591 250.862 70.2528 276.775 68.8115C280.374 68.4512 284.333 67.3703 287.932 65.929C287.932 69.1719 287.932 75.2972 282.534 79.9813C275.695 86.4669 261.659 88.6288 250.862 95.4748C244.743 99.0779 241.144 103.762 238.985 107.725C237.185 103.762 233.586 99.0779 227.108 95.4748C216.31 88.6288 202.274 86.4669 195.076 79.9813C189.677 75.2972 189.677 69.1719 189.677 65.929C193.996 67.3703 197.955 68.4512 201.554 68.8115Z" fill="#EEE0D1"/>
<path d="M2.15946 20.1691C0.71982 22.331 0 23.412 0 23.412C0.35991 23.7723 0.71982 23.7723 1.43964 23.7723C1.43964 24.4929 1.07973 24.8532 1.79955 25.2135C1.79955 25.2135 3.23919 24.4929 5.03874 23.0517C8.99775 21.9707 15.4761 20.5295 26.6334 22.6913C36.7108 24.8532 50.0275 32.0595 62.9843 30.2579C72.3419 28.4564 75.5811 21.9707 76.6609 19.0882C91.4172 25.5739 110.492 25.9342 122.01 17.2866C130.287 11.8819 133.527 5.39627 135.326 0.351869H132.806C129.927 4.67564 125.969 9.35972 119.49 12.6025C105.814 19.8088 84.219 15.8454 71.2622 4.31532C69.4627 2.87407 67.3032 1.79313 65.1437 0.351869H49.6676C53.9865 2.87407 59.3852 6.83752 65.5036 12.2422C68.3829 15.1247 71.982 16.9263 75.941 18.7279C73.4217 20.8898 69.1027 25.2135 62.2645 24.8532C52.5469 24.4929 41.0298 16.2057 28.4329 13.3232C21.5946 11.5216 15.836 12.2422 11.5171 13.6835C12.5969 10.0803 12.9568 5.39627 12.2369 0.351869H2.51937C4.31892 10.4407 3.23919 16.566 2.15946 20.1691Z" fill="#EEE0D1"/>
<path d="M391.219 30.9841C381.141 33.146 364.585 27.3809 364.225 28.4619C363.506 28.4619 377.182 42.5141 391.938 40.7126C405.975 38.1904 405.975 30.9841 405.975 31.3444C405.615 30.6238 400.936 29.5428 391.219 30.9841Z" fill="#EEE0D1"/>
<path d="M430.449 16.2095C440.166 10.4445 440.166 5.40009 440.166 5.03978C440.166 4.67947 435.128 2.51758 425.77 7.92229C417.132 15.4889 404.535 18.3714 403.096 18.7317C401.656 20.5333 420.731 24.4967 430.449 16.2095Z" fill="#EEE0D1"/>
</svg>
