<svg preserveAspectRatio="none" width="100%" height="100%" overflow="visible" style="display: block;" viewBox="0 0 3.13873 3.91645" fill="none" xmlns="http://www.w3.org/2000/svg">
<path id="Vector" d="M3.04381 1.40424C2.75155 1.87314 2.46434 3.02884 1.658 2.69794C1.28749 2.54574 1.29392 2.05964 1.28169 1.72734C1.26378 1.26134 1.27739 0.796039 1.31975 0.331439C1.33703 0.139139 1.28892 -0.20316 1.14816 0.15984C1.05625 0.39724 0.91692 0.583039 0.75039 0.773139C0.51341 1.04404 0.32313 1.34924 0.0825801 1.61654C0.0631901 1.63864 0.02441 1.74304 0 1.84664C0.21901 1.77164 0.43011 1.67224 0.65848 1.62584C0.7439 1.60794 0.81497 1.63584 0.86382 1.68374C0.88897 1.64514 0.91337 1.60654 0.93633 1.56654C0.93346 1.64224 0.93133 1.71874 0.9299 1.79454C0.94425 1.84164 0.94425 1.89174 0.92846 1.93674C0.92697 2.18474 0.93202 2.43274 0.94494 2.68084C0.96503 3.05454 0.95717 3.57284 1.29679 3.81934C1.61419 4.05024 2.05365 3.82864 2.28701 3.57924C2.63094 3.21184 2.72859 2.69144 2.97274 2.26554C3.08187 2.07464 3.12137 1.82094 3.13641 1.60444C3.14077 1.53934 3.15007 1.23344 3.04307 1.40494L3.04381 1.40424Z" fill="var(--fill-0, #A87333)"/>
</svg>
