<svg preserveAspectRatio="none" width="100%" height="100%" overflow="visible" style="display: block;" viewBox="0 0 2.82498 4.40928" fill="none" xmlns="http://www.w3.org/2000/svg">
<path id="Vector" d="M2.43123 1.18806C2.21013 0.785061 1.96528 0.396861 1.70247 0.0202606C1.61774 -0.101239 1.49638 0.36186 1.48708 0.39906C1.44758 0.55696 1.31617 0.97086 1.42531 1.12806C1.63783 1.43396 1.83818 1.74706 2.02343 2.07006C2.16063 2.30956 2.32073 2.56396 2.42193 2.82846C2.33583 2.90566 2.23743 2.97276 2.13403 3.02286C1.8023 3.18226 1.41095 3.20006 1.04906 3.21366C0.92052 3.21866 0.77115 3.23516 0.66489 3.14936C0.55432 3.05926 0.58808 2.95786 0.59669 2.83126C0.62034 2.46886 0.61822 2.10656 0.58808 1.74486C0.56006 1.41246 0.49973 1.08376 0.41786 0.76066C0.37693 0.59846 0.34823 0.37976 0.25632 0.24106C0.25058 0.23246 0.24197 0.22036 0.23192 0.20746C0.16797 0.67996 0.04592 1.14376 0 1.61836C0.06389 1.80486 0.12922 1.98786 0.17302 2.18156C0.26711 2.59476 0.30873 3.02146 0.28072 3.44386C0.26281 3.71826 0.16223 4.21076 0.47458 4.36586C0.62826 4.44236 0.86093 4.39656 1.02173 4.38656C1.24074 4.37226 1.46262 4.34946 1.67377 4.28716C2.52963 4.03346 2.83263 3.15366 2.82483 2.32666C2.82043 1.90786 2.62803 1.54906 2.43123 1.19026V1.18806Z" fill="var(--fill-0, #A87333)"/>
</svg>
